<svg width="40" height="40" viewBox="0 0 40 40" fill="none" xmlns="http://www.w3.org/2000/svg">
<rect width="40" height="40" fill="black"/>
<path d="M19.9992 16.1475C18.9772 16.1475 17.9971 16.5534 17.2744 17.2761C16.5518 17.9987 16.1458 18.9788 16.1458 20.0008C16.1458 21.0228 16.5518 22.0029 17.2744 22.7255C17.9971 23.4482 18.9772 23.8541 19.9992 23.8541C21.0211 23.8541 22.0012 23.4482 22.7239 22.7255C23.4465 22.0029 23.8525 21.0228 23.8525 20.0008C23.8525 18.9788 23.4465 17.9987 22.7239 17.2761C22.0012 16.5534 21.0211 16.1475 19.9992 16.1475ZM19.9992 22.5033C19.3352 22.5033 18.6985 22.2395 18.229 21.7701C17.7596 21.3006 17.4958 20.6639 17.4958 20C17.4958 19.336 17.7596 18.6993 18.229 18.2298C18.6985 17.7604 19.3352 17.4966 19.9992 17.4966C20.6631 17.4966 21.2998 17.7604 21.7693 18.2298C22.2388 18.6993 22.5025 19.336 22.5025 20C22.5025 20.6639 22.2388 21.3006 21.7693 21.7701C21.2998 22.2395 20.6631 22.5033 19.9992 22.5033Z" fill="white"/>
<path d="M24.005 16.9042C24.5011 16.9042 24.9033 16.502 24.9033 16.0059C24.9033 15.5097 24.5011 15.1075 24.005 15.1075C23.5089 15.1075 23.1067 15.5097 23.1067 16.0059C23.1067 16.502 23.5089 16.9042 24.005 16.9042Z" fill="white"/>
<path d="M27.1108 15.0925C26.9179 14.5943 26.6231 14.1419 26.2453 13.7642C25.8674 13.3865 25.4149 13.0919 24.9167 12.8992C24.3336 12.6803 23.7176 12.5619 23.095 12.5492C22.2925 12.5142 22.0383 12.5042 20.0033 12.5042C17.9683 12.5042 17.7075 12.5042 16.9117 12.5492C16.2895 12.5613 15.674 12.6797 15.0917 12.8992C14.5933 13.0917 14.1406 13.3862 13.7628 13.7639C13.3849 14.1416 13.0902 14.5942 12.8975 15.0925C12.6786 15.6755 12.5605 16.2915 12.5483 16.9141C12.5125 17.7158 12.5017 17.97 12.5017 20.0058C12.5017 22.0408 12.5017 22.3 12.5483 23.0975C12.5608 23.7208 12.6783 24.3358 12.8975 24.92C13.0907 25.4181 13.3857 25.8705 13.7637 26.2481C14.1416 26.6258 14.5942 26.9205 15.0925 27.1133C15.6737 27.341 16.2895 27.4678 16.9133 27.4883C17.7158 27.5233 17.97 27.5341 20.005 27.5341C22.04 27.5341 22.3008 27.5341 23.0967 27.4883C23.7192 27.4757 24.3352 27.3576 24.9183 27.1391C25.4165 26.946 25.8689 26.6511 26.2466 26.2733C26.6244 25.8955 26.9193 25.4431 27.1125 24.945C27.3317 24.3616 27.4492 23.7466 27.4617 23.1233C27.4975 22.3216 27.5083 22.0675 27.5083 20.0316C27.5083 17.9958 27.5083 17.7375 27.4617 16.94C27.452 16.3085 27.3333 15.6835 27.1108 15.0925ZM26.0958 23.0358C26.0905 23.5161 26.0028 23.9918 25.8367 24.4425C25.7115 24.7665 25.5199 25.0608 25.2742 25.3064C25.0285 25.5519 24.7341 25.7434 24.41 25.8683C23.9644 26.0337 23.4936 26.1213 23.0183 26.1275C22.2267 26.1641 22.0033 26.1733 19.9733 26.1733C17.9417 26.1733 17.7342 26.1733 16.9275 26.1275C16.4524 26.1217 15.9819 26.034 15.5367 25.8683C15.2114 25.7441 14.9158 25.5531 14.6691 25.3074C14.4223 25.0618 14.2299 24.7672 14.1042 24.4425C13.9404 23.9967 13.8528 23.5265 13.845 23.0516C13.8092 22.26 13.8008 22.0366 13.8008 20.0066C13.8008 17.9758 13.8008 17.7683 13.845 16.9608C13.8504 16.4808 13.938 16.0053 14.1042 15.555C14.3583 14.8975 14.8792 14.38 15.5367 14.1283C15.9822 13.9634 16.4525 13.8758 16.9275 13.8692C17.72 13.8333 17.9425 13.8233 19.9733 13.8233C22.0042 13.8233 22.2125 13.8233 23.0183 13.8692C23.4937 13.8749 23.9645 13.9625 24.41 14.1283C24.7341 14.2535 25.0285 14.4452 25.2741 14.6908C25.5198 14.9365 25.7114 15.2309 25.8367 15.555C26.0005 16.0008 26.0881 16.4709 26.0958 16.9458C26.1317 17.7383 26.1408 17.9608 26.1408 19.9916C26.1408 22.0216 26.1408 22.24 26.105 23.0366H26.0958V23.0358Z" fill="white"/>
</svg>
