<svg width="40" height="40" viewBox="0 0 40 40" fill="none" xmlns="http://www.w3.org/2000/svg">
<rect width="40" height="40" fill="black"/>
<path fill-rule="evenodd" clip-rule="evenodd" d="M17.8575 17.4741H20.9525V19.0158C21.3983 18.1291 22.5417 17.3325 24.2592 17.3325C27.5517 17.3325 28.3333 19.0975 28.3333 22.3358V28.3333H25V23.0733C25 21.2291 24.5542 20.1891 23.4192 20.1891C21.845 20.1891 21.1908 21.31 21.1908 23.0725V28.3333H17.8575V17.4741ZM12.1417 28.1916H15.475V17.3325H12.1417V28.1916ZM15.9525 13.7916C15.9526 14.071 15.8972 14.3477 15.7895 14.6054C15.6818 14.8632 15.5239 15.0971 15.325 15.2933C14.922 15.6938 14.3765 15.918 13.8083 15.9166C13.2411 15.9162 12.6969 15.6926 12.2933 15.2941C12.0952 15.0972 11.9378 14.8631 11.8303 14.6053C11.7227 14.3475 11.6671 14.071 11.6667 13.7916C11.6667 13.2275 11.8917 12.6875 12.2942 12.2891C12.6974 11.8901 13.2419 11.6664 13.8092 11.6666C14.3775 11.6666 14.9225 11.8908 15.325 12.2891C15.7267 12.6875 15.9525 13.2275 15.9525 13.7916Z" fill="white"/>
</svg>
