<svg width="40" height="40" viewBox="0 0 40 40" fill="none" xmlns="http://www.w3.org/2000/svg">
<rect width="40" height="40" fill="black"/>
<path d="M26.325 15.575C25.4943 15.3923 24.7428 14.9512 24.1784 14.3149C23.614 13.6786 23.2656 12.8799 23.1833 12.0333V11.6666H20.3083V23.0583C20.3089 23.5638 20.1504 24.0566 19.8554 24.467C19.5603 24.8774 19.1436 25.1845 18.6642 25.3449C18.1849 25.5053 17.6672 25.5108 17.1846 25.3607C16.7019 25.2105 16.2787 24.9123 15.975 24.5083C15.7029 24.1507 15.5362 23.724 15.4939 23.2766C15.4516 22.8292 15.5354 22.3789 15.7356 21.9766C15.9359 21.5743 16.2448 21.2361 16.6273 21.0002C17.0097 20.7643 17.4506 20.6401 17.9 20.6416C18.1485 20.6402 18.3958 20.6767 18.6333 20.75V17.8333C18.3569 17.7991 18.0784 17.7851 17.8 17.7916C16.7744 17.819 15.7791 18.1449 14.9359 18.7294C14.0927 19.3138 13.4382 20.1314 13.0526 21.0822C12.6671 22.0329 12.5671 23.0754 12.7649 24.0821C12.9628 25.0888 13.4499 26.0159 14.1667 26.75C14.9012 27.4968 15.8412 28.0084 16.8672 28.2198C17.8932 28.4312 18.9589 28.3328 19.9289 27.9371C20.8988 27.5415 21.7293 26.8664 22.3147 25.9977C22.9001 25.129 23.2141 24.1058 23.2167 23.0583V17.225C24.3762 18.0533 25.7667 18.4963 27.1917 18.4916V15.6583C26.9117 15.6594 26.6325 15.6315 26.3583 15.575H26.325Z" fill="white"/>
</svg>
